<?xml version="1.0" encoding="UTF-8"?>
<svg id="Layer_2" data-name="Layer 2" xmlns="http://www.w3.org/2000/svg" viewBox="0 0 128 24">
  <defs>
    <style>
      .cls-1 {
        fill: #fff;
      }

      .cls-2 {
        fill: #532322;
      }
    </style>
  </defs>
  <g id="Layer_1-2" data-name="Layer 1">
    <path class="cls-2" d="M106.01,12.36c-.95,0-1.51.44-1.87.85-.28.35-.54.82-.64,1.41h4.99c-.03-.12-.2-.94-.74-1.52-.41-.44-1-.73-1.74-.73Z"/>
    <path class="cls-2" d="M120.28,13.07c-.74,0-1.38.23-1.97.88h0c-.54.59-.89,1.43-.89,2.49,0,.97.36,1.82.89,2.4.56.62,1.28.91,1.92.91.69,0,1.51-.32,2.1-.97.43-.47.84-1.26.84-2.34s-.38-1.87-.82-2.4c-.59-.7-1.28-.97-2.07-.97Z"/>
    <path class="cls-2" d="M99,0v24h29V0h-29ZM111.89,17.14h0s-8.52,0-8.52,0c0,.7.23,1.64.69,2.23.56.7,1.33.82,1.89.82s1.1-.12,1.48-.38c.05-.03.49-.35.79-1.08l3.48.41c-.51,1.84-1.53,2.81-2.2,3.28-1.1.76-2.33.97-3.61.97-1.71,0-3.22-.35-4.55-1.87-1-1.14-1.71-2.87-1.71-5.04,0-1.87.59-3.81,1.74-5.15,1.38-1.58,3.09-1.87,4.37-1.87s3.12.26,4.52,1.96c1.36,1.64,1.61,3.69,1.61,5.3v.44ZM126.62,22.94h0s-3.68,0-3.68,0v-1.58c-.56.94-1.58,2.02-3.6,2.02-1.69,0-2.91-.61-3.91-1.79-1.18-1.35-1.79-3.22-1.79-5.24,0-2.17.69-3.95,1.79-5.15,1-1.08,2.4-1.76,3.96-1.76,1.25,0,2.63.47,3.55,1.9V1.59h3.68v21.35Z"/>
    <path class="cls-2" d="M5.96,13.27v9.66H1.58v-9.66H0v-3.4h1.58v-2.58c0-1.46.15-3.13,1.52-4.54.88-.91,2.13-1.49,3.8-1.49.97,0,1.76.18,2.5.44v3.69c-.49-.29-1.13-.5-1.67-.5-.67,0-1.1.29-1.28.53-.49.62-.49,1.64-.49,2.25v2.2h3.47v3.4h-3.47Z"/>
    <path class="cls-2" d="M21.99,21.27c-1.02,1.17-2.76,2.11-4.99,2.11s-3.96-.94-4.99-2.11c-1.15-1.32-1.71-3.19-1.71-4.86s.56-3.54,1.71-4.86c1.02-1.17,2.76-2.11,4.99-2.11s3.96.94,4.99,2.11c1.15,1.32,1.71,3.19,1.71,4.86s-.56,3.54-1.71,4.86ZM14.93,13.94c-.54.61-.84,1.41-.84,2.46,0,1.2.41,1.96.84,2.46.46.53,1.12.94,2.1.94.82,0,1.51-.32,2.05-.94.54-.61.84-1.41.84-2.46s-.31-1.84-.84-2.46c-.54-.61-1.23-.94-2.07-.94s-1.53.32-2.07.94h0Z"/>
    <path class="cls-2" d="M29.94,15.82l-4.53-5.94h4.7l2.12,3.02,2.12-3.02h4.7l-4.53,5.94,5.57,7.12h-4.76l-3.12-4.22-3.12,4.22h-4.76l5.57-7.12Z"/>
    <path class="cls-2" d="M41.6,9.88h3.68v1.52c.95-1.64,2.33-1.84,3.2-1.84.49,0,1.38.06,2.15.59.59.38,1.07,1.02,1.38,1.82.28-.53.72-1.14,1.46-1.67.79-.56,1.53-.73,2.43-.73,1.38,0,2.51.47,3.2,1.23,1.1,1.2,1.18,2.96,1.18,3.89v8.26h-3.68v-6.62c0-.67,0-1.84-.49-2.55-.31-.44-.79-.7-1.33-.7-.61,0-1.13.32-1.43.79-.49.7-.56,1.73-.56,2.58v6.5h-3.68v-6.79c0-.88-.03-1.9-.59-2.55-.38-.44-.84-.53-1.23-.53-.49,0-.92.15-1.28.53-.69.76-.72,2.23-.72,2.66v6.68h-3.68v-13.06h0Z"/>
    <path class="cls-2" d="M65.25,1.85c1.2,0,2.15,1.08,2.15,2.46s-.95,2.46-2.15,2.46-2.15-1.08-2.15-2.46.95-2.46,2.15-2.46ZM67.4,10.13v13.06l-3.99-.25v-13.06l3.99.25Z"/>
    <path class="cls-2" d="M70.21,9.88h3.68v1.55c1.13-1.64,2.45-1.9,3.53-1.9,1,0,2.3.2,3.27,1.32,1.07,1.23,1.15,2.78,1.15,3.84v8.26h-3.68v-6.71c0-.85-.03-1.93-.61-2.61-.28-.32-.74-.59-1.41-.59-.77,0-1.25.35-1.53.7-.61.7-.72,1.64-.72,2.49v6.71h-3.68v-13.06Z"/>
    <path class="cls-2" d="M97.14,22.94h-3.68v-1.58c-.56.94-1.59,2.02-3.6,2.02-1.69,0-2.92-.62-3.91-1.79-1.18-1.35-1.79-3.22-1.79-5.24,0-2.17.69-3.95,1.79-5.15,1-1.08,2.4-1.76,3.96-1.76,1.25,0,2.63.47,3.55,1.9V1.59h3.68v21.35h0ZM88.83,13.95c-.54.59-.89,1.44-.89,2.49,0,.97.36,1.82.89,2.4.56.62,1.28.91,1.92.91.69,0,1.51-.32,2.1-.97.43-.47.84-1.26.84-2.34s-.38-1.87-.82-2.4c-.59-.7-1.28-.97-2.07-.97-.74,0-1.38.23-1.97.88h0Z"/>
    <path class="cls-1" d="M111.89,17.14h-8.51c0,.7.23,1.64.69,2.23.56.7,1.33.82,1.89.82s1.1-.12,1.48-.38c.05-.03.49-.35.79-1.08l3.48.41c-.51,1.84-1.53,2.81-2.2,3.28-1.1.76-2.33.97-3.61.97-1.71,0-3.22-.35-4.55-1.87-1-1.14-1.71-2.87-1.71-5.04,0-1.87.59-3.81,1.74-5.15,1.38-1.58,3.09-1.87,4.37-1.87s3.12.26,4.53,1.96c1.36,1.64,1.61,3.69,1.61,5.3v.44h0ZM108.49,14.62c-.03-.12-.2-.94-.74-1.52-.41-.44-1-.73-1.74-.73-.95,0-1.51.44-1.87.85-.28.35-.54.82-.64,1.41h4.99Z"/>
    <path class="cls-1" d="M126.62,22.94h-3.68v-1.58c-.56.94-1.58,2.02-3.6,2.02-1.69,0-2.92-.62-3.91-1.79-1.18-1.35-1.79-3.22-1.79-5.24,0-2.17.69-3.95,1.79-5.15,1-1.08,2.4-1.76,3.96-1.76,1.25,0,2.63.47,3.55,1.9V1.59h3.68v21.35h0ZM118.31,13.95c-.54.59-.89,1.44-.89,2.49,0,.97.36,1.82.89,2.4.56.62,1.28.91,1.92.91.69,0,1.51-.32,2.1-.97.44-.47.84-1.26.84-2.34s-.38-1.87-.82-2.4c-.59-.7-1.28-.97-2.07-.97-.74,0-1.38.23-1.97.88h0Z"/>
  </g>
</svg>