<svg xmlns="http://www.w3.org/2000/svg" viewBox="0 0 81.65 112.38"><defs><style>.cls-1,.cls-7{fill:#ea9127;}.cls-1,.cls-2,.cls-3,.cls-4,.cls-5,.cls-6{stroke:#fff;stroke-linejoin:round;stroke-width:7px;}.cls-2,.cls-8{fill:#e39334;}.cls-3,.cls-9{fill:#f6d365;}.cls-10,.cls-4{fill:#532322;}.cls-11,.cls-5{fill:#cc5520;}.cls-12,.cls-6{fill:#903518;}</style></defs><g id="Layer_2" data-name="Layer 2"><g id="Layer_1-2" data-name="Layer 1"><path class="cls-1" d="M4.66,17.2a33.75,33.75,0,0,0-1,12.43,33.32,33.32,0,0,0,2.59,9.7c2.32-1.57,4.92-3.18,7.79-4.76A96.89,96.89,0,0,1,23,30.23a35.37,35.37,0,0,0-7.35-7.43,36.52,36.52,0,0,0-11-5.6Z"/><path class="cls-1" d="M64.86,3.52a36.1,36.1,0,0,0-10.8,20.15c2.9-.08,6.08,0,9.5.2s6.55.64,9.4,1.11a35.44,35.44,0,0,0-8.1-21.46Z"/><path class="cls-2" d="M7.19,43A73.72,73.72,0,0,0,17.92,71.14a47.06,47.06,0,0,1,6.86-18.75c2.36-3.65,5.19-6.8,5.42-11.67a15.92,15.92,0,0,0-2.58-9A78.34,78.34,0,0,0,7.19,43Z"/><path class="cls-3" d="M30.68,30.11a19.9,19.9,0,0,1,2.59,7,18,18,0,0,1-.11,7.12c-.93,4-2.8,4.95-5.93,11.38-.81,1.65-1.38,3-1.73,3.9l22.27,4.85C50.5,61.83,62.9,49.8,61.43,33.78a30,30,0,0,0-1.9-8,80.93,80.93,0,0,0-28.85,4.33Z"/><path class="cls-1" d="M74,27.09a61.11,61.11,0,0,1,2.3,7.17,62.44,62.44,0,0,1,1.15,24.4,10.94,10.94,0,0,0-16.82-5.94A35.33,35.33,0,0,0,62.8,25.59L74,27.09Z"/><path class="cls-3" d="M20.22,74.64,40.55,96.07a43.32,43.32,0,0,0,27.67-6.24q4.56-14.06,9.1-28.13a56.63,56.63,0,0,1-6.12,3,58.09,58.09,0,0,1-8.26,2.75c-7,1.8-7.65.86-14.24,2.36C42.76,71.16,43,72,36.18,73.41a58.79,58.79,0,0,1-10,1.3,56.09,56.09,0,0,1-6-.07Z"/><path class="cls-4" d="M45.17,68.12c-2-.61-4.62-1.38-7.82-2.17-1.71-.42-3.05-.71-4.51-1-2.15-.47-5-1.05-8.29-1.67a9.26,9.26,0,0,0,2,8.24c2.27-.68,4.76-1.32,7.45-1.87a86,86,0,0,1,11.19-1.51Z"/><path class="cls-4" d="M51.18,67.58c2.67-2.82,5.64-5.72,8.94-8.64,2.38-2.1,4.72-4,7-5.77A11.86,11.86,0,0,1,69,62.71a67.27,67.27,0,0,0-7.53,1.42A68.39,68.39,0,0,0,51.18,67.58Z"/><path class="cls-4" d="M45,98.92A47,47,0,0,0,55.4,97.81a46.28,46.28,0,0,0,9.95-3.46q-3.72,7.26-7.45,14.53Z"/><path class="cls-4" d="M51.18,67.58c1.45-1.53,3.43-3.54,5.89-5.81,1.32-1.21,2.36-2.12,3.5-3.11,1.68-1.47,3.89-3.35,6.54-5.49a12.23,12.23,0,0,1,2,9.52A68.66,68.66,0,0,0,61.7,64.1a72,72,0,0,0-10.52,3.48Z"/><path class="cls-5" d="M17.87,71.16A82.68,82.68,0,0,1,8.59,49.73C8,47.4,7.46,45.16,7.07,43a79.16,79.16,0,0,1,10.81-6.92,81,81,0,0,1,9.59-4.33,29.68,29.68,0,0,1-2,6.4c-3.32,7.61-8,9.62-10.29,14.18-1.67,3.38-2.41,9.05,2.67,18.83Z"/><path class="cls-5" d="M59.62,46.92a32.62,32.62,0,0,1-14.29-2.75A33,33,0,0,1,30.15,30.25a84.19,84.19,0,0,1,29.39-4.46,29.29,29.29,0,0,1,1.88,8.06,29.89,29.89,0,0,1-1.8,13.07Z"/><path class="cls-5" d="M62.37,25.7,74,27.09a58.83,58.83,0,0,1,3.34,12.13,59.55,59.55,0,0,1-.08,19.49c.19-1.67,1.51-15.11-7.72-21.78A17.69,17.69,0,0,0,64,34.26c-.06-1-.16-2-.33-3.09a35.56,35.56,0,0,0-1.3-5.47Z"/><path class="cls-5" d="M54.06,23.67A36.25,36.25,0,0,1,64.86,3.52,35.19,35.19,0,0,1,70.1,12.1,35.73,35.73,0,0,1,73,25a10.56,10.56,0,0,0-8.52-6.87A10.39,10.39,0,0,0,54.06,23.67Z"/><path class="cls-5" d="M6.29,39.33a33.47,33.47,0,0,1-2.62-10,33.87,33.87,0,0,1,1-12.14,36.67,36.67,0,0,1,9.14,4.32A35.92,35.92,0,0,1,23,30.23a10.59,10.59,0,0,0-12.14-.59,10.16,10.16,0,0,0-4.54,9.69Z"/><path class="cls-1" d="M40.56,96.07,20.22,74.64a23.57,23.57,0,0,0,9.1,6.19c14.2,5.2,30.41-6,38.82-11.79a87.18,87.18,0,0,0,9.19-7.32L68.24,89.83a43.43,43.43,0,0,1-27.68,6.24Z"/><path class="cls-1" d="M30.43,30a20.17,20.17,0,0,1,2.8,8,16.2,16.2,0,0,1-.44,7.24c-.79,2.5-1.66,3.47-3.46,6.64a59.13,59.13,0,0,0-3.75,8,40.93,40.93,0,0,0,8.9.21,44,44,0,0,0,23.45-9.59l1.26-3.23a62.91,62.91,0,0,1-19.78-9.48,65.06,65.06,0,0,1-9-7.8Z"/><path class="cls-6" d="M5.25,17.05a33.64,33.64,0,0,0-.9,5.26,34.63,34.63,0,0,0,.25,8.24,8.34,8.34,0,0,1,1.88-6.22c2.46-2.6,7-2.86,10.8-.17A38.5,38.5,0,0,0,9.66,19a38.08,38.08,0,0,0-4.41-1.93Z"/><path class="cls-6" d="M65,3.5a29.1,29.1,0,0,1,6.36,11.66,8,8,0,0,0-4.53-4.85c-3.39-1.2-7.68.51-9.94,4.41a35.26,35.26,0,0,1,4.59-7.44A34.7,34.7,0,0,1,65,3.5Z"/><path class="cls-5" d="M68.13,89.85Q71.57,79.19,75,68.53A55.15,55.15,0,0,1,57.27,88.46a54.55,54.55,0,0,1-17.08,7.69,44,44,0,0,0,27.94-6.3Z"/><path class="cls-7" d="M4.66,17.22a33.71,33.71,0,0,0-1,12.43,33.33,33.33,0,0,0,2.59,9.69c2.32-1.57,4.92-3.18,7.79-4.76,3.13-1.73,6.12-3.15,8.89-4.34a35.61,35.61,0,0,0-7.35-7.43,36.45,36.45,0,0,0-11-5.59Z"/><path class="cls-7" d="M64.86,3.53a36.1,36.1,0,0,0-10.8,20.15c2.9-.08,6.08,0,9.5.2s6.55.64,9.4,1.12a35.44,35.44,0,0,0-8.1-21.47Z"/><path class="cls-8" d="M7.19,43A73.39,73.39,0,0,0,11,57.23a74.33,74.33,0,0,0,7,13.93A47.12,47.12,0,0,1,24.78,52.4c2.36-3.65,5.19-6.8,5.42-11.67a15.92,15.92,0,0,0-2.58-9A78.83,78.83,0,0,0,7.19,43Z"/><path class="cls-9" d="M30.68,30.12a20,20,0,0,1,2.59,7,18,18,0,0,1-.11,7.12c-.93,4-2.8,5-5.93,11.38-.81,1.65-1.38,3-1.73,3.9l22.27,4.85C50.5,61.85,62.9,49.81,61.43,33.79a29.85,29.85,0,0,0-1.9-8,81.25,81.25,0,0,0-28.85,4.32Z"/><path class="cls-7" d="M74,27.1a60.69,60.69,0,0,1,2.3,7.18,62.43,62.43,0,0,1,1.15,24.4,10.92,10.92,0,0,0-16.82-5.94A35.36,35.36,0,0,0,62.8,25.6L74,27.1Z"/><path class="cls-9" d="M20.22,74.65,40.55,96.08a43.39,43.39,0,0,0,27.67-6.23q4.56-14.07,9.1-28.14a56.45,56.45,0,0,1-6.12,3,59.56,59.56,0,0,1-8.26,2.74c-7,1.8-7.65.87-14.24,2.36C42.76,71.17,43,72,36.18,73.42a60,60,0,0,1-10,1.31,58.47,58.47,0,0,1-6-.08Z"/><path class="cls-10" d="M45.17,68.13c-2-.61-4.62-1.38-7.82-2.16-1.71-.42-3.05-.72-4.51-1-2.15-.47-5-1-8.29-1.67a9.26,9.26,0,0,0,2,8.24c2.27-.68,4.76-1.32,7.45-1.87a86,86,0,0,1,11.19-1.51Z"/><path class="cls-10" d="M51.18,67.59c2.67-2.81,5.64-5.72,8.94-8.64,2.38-2.1,4.72-4,7-5.77A11.86,11.86,0,0,1,69,62.72a69.21,69.21,0,0,0-17.85,4.87Z"/><path class="cls-10" d="M45,98.93a46.07,46.07,0,0,0,20.33-4.57L57.9,108.89Z"/><path class="cls-10" d="M51.18,67.59c1.45-1.53,3.43-3.54,5.89-5.81,1.32-1.21,2.36-2.12,3.5-3.11,1.68-1.47,3.89-3.35,6.54-5.49a12.23,12.23,0,0,1,2,9.52,71.19,71.19,0,0,0-7.41,1.41,72,72,0,0,0-10.52,3.48Z"/><path class="cls-11" d="M17.87,71.17A82.68,82.68,0,0,1,8.59,49.74C8,47.42,7.46,45.17,7.07,43a80.13,80.13,0,0,1,10.81-6.92,81,81,0,0,1,9.59-4.33,29.9,29.9,0,0,1-2,6.41c-3.32,7.6-8,9.61-10.29,14.17-1.67,3.38-2.41,9,2.67,18.83Z"/><path class="cls-11" d="M59.62,46.93a32.73,32.73,0,0,1-14.29-2.74A33.09,33.09,0,0,1,30.15,30.26,84.19,84.19,0,0,1,59.54,25.8a29.38,29.38,0,0,1,1.88,8.06,29.89,29.89,0,0,1-1.8,13.07Z"/><path class="cls-11" d="M62.37,25.71,74,27.1a59,59,0,0,1,3.34,12.13,59.55,59.55,0,0,1-.08,19.49c.19-1.67,1.51-15.11-7.72-21.78A17.48,17.48,0,0,0,64,34.28c-.06-1-.16-2-.33-3.1a35.56,35.56,0,0,0-1.3-5.47Z"/><path class="cls-11" d="M54.06,23.68A36.25,36.25,0,0,1,64.86,3.53a35.19,35.19,0,0,1,5.24,8.58A35.73,35.73,0,0,1,73,25a10.57,10.57,0,0,0-8.52-6.88A10.39,10.39,0,0,0,54.06,23.68Z"/><path class="cls-11" d="M6.29,39.34a33.47,33.47,0,0,1-2.62-10,33.81,33.81,0,0,1,1-12.13,36,36,0,0,1,9.14,4.32A35.74,35.74,0,0,1,23,30.24a10.59,10.59,0,0,0-12.14-.59,10.17,10.17,0,0,0-4.54,9.69Z"/><path class="cls-7" d="M40.56,96.08,20.22,74.65a23.57,23.57,0,0,0,9.1,6.19c14.2,5.2,30.41-6,38.82-11.79a87.18,87.18,0,0,0,9.19-7.32L68.24,89.84a43.27,43.27,0,0,1-27.68,6.24Z"/><path class="cls-7" d="M30.43,30a20.17,20.17,0,0,1,2.8,8,16.2,16.2,0,0,1-.44,7.24c-.79,2.5-1.66,3.47-3.46,6.65a58.31,58.31,0,0,0-3.75,8,41.53,41.53,0,0,0,8.9.22,44.12,44.12,0,0,0,23.45-9.6l1.26-3.23a62.91,62.91,0,0,1-19.78-9.48,65.06,65.06,0,0,1-9-7.8Z"/><path class="cls-12" d="M4.54,17.22a33.7,33.7,0,0,0-.9,5.25,34.61,34.61,0,0,0,.25,8.24,8.35,8.35,0,0,1,1.88-6.22c2.46-2.59,7-2.85,10.8-.16A38.5,38.5,0,0,0,9,19.15a34.92,34.92,0,0,0-4.41-1.93Z"/><path class="cls-12" d="M65,3.51a29.1,29.1,0,0,1,6.36,11.66,8,8,0,0,0-4.53-4.85c-3.39-1.2-7.68.51-9.94,4.41a35.26,35.26,0,0,1,4.59-7.44A35.65,35.65,0,0,1,65,3.51Z"/><path class="cls-7" d="M68.13,89.86Q71.57,79.21,75,68.54A55.15,55.15,0,0,1,57.27,88.47a54.55,54.55,0,0,1-17.08,7.69,44.21,44.21,0,0,0,15.66-1.09A43.66,43.66,0,0,0,68.13,89.86Z"/></g></g></svg>