<svg viewBox="0 0 133 24" fill="none" xmlns="http://www.w3.org/2000/svg">
<path d="M133 0H103V24H133V0Z" fill="#532322"/>
<path d="M6.19694 12.9602V23.0005H1.6441V12.9602H0V9.43089H1.6441V6.75355C1.6441 5.23248 1.80228 3.4983 3.22496 2.03806C4.14181 1.0945 5.43813 0.486328 7.17717 0.486328C8.18882 0.486328 9.01075 0.668781 9.76981 0.942458V4.77609C9.26398 4.47175 8.59985 4.2589 8.03065 4.2589C7.33521 4.2589 6.8925 4.56323 6.70277 4.8065C6.19694 5.44559 6.19694 6.51041 6.19694 7.14911V9.43102H9.80137V12.9603H6.19694V12.9602Z" fill="#532322"/>
<path d="M22.8463 21.2653C21.7835 22.4823 19.977 23.4562 17.6654 23.4562C15.3541 23.4562 13.5474 22.4824 12.4846 21.2653C11.2893 19.896 10.7046 17.9488 10.7046 16.2151C10.7046 14.4807 11.2893 12.5336 12.4846 11.1643C13.5474 9.94734 15.3541 8.97388 17.6654 8.97388C19.977 8.97388 21.7835 9.94721 22.8463 11.1643C24.0419 12.5336 24.6263 14.4809 24.6263 16.2151C24.6263 17.949 24.0419 19.8961 22.8463 21.2653ZM15.5136 13.6591C14.9556 14.298 14.6369 15.1193 14.6369 16.2149C14.6369 17.4623 15.0618 18.2532 15.5136 18.7704C15.9917 19.318 16.6825 19.7441 17.692 19.7441C18.5423 19.7441 19.2597 19.4093 19.8177 18.7704C20.3754 18.1313 20.6943 17.3101 20.6943 16.2149C20.6943 15.1193 20.3754 14.298 19.8177 13.6591C19.2597 13.0204 18.5423 12.6858 17.6656 12.6858C16.7888 12.6858 16.0714 13.0204 15.5137 13.6591H15.5136Z" fill="#532322"/>
<path d="M31.1092 15.6068L26.4067 9.43042H31.2951L33.5004 12.5643L35.7055 9.43042H40.594L35.8915 15.6068L41.6832 23H36.7414L33.5004 18.6188L30.2591 23H25.3174L31.1092 15.6068Z" fill="#532322"/>
<path d="M43.224 9.43094H47.0496V11.0131C48.0326 9.30957 49.4673 9.09619 50.3706 9.09619C50.8756 9.09619 51.8054 9.15727 52.6025 9.705C53.2134 10.1004 53.7184 10.7699 54.037 11.5915C54.3293 11.0435 54.781 10.4048 55.5516 9.85704C56.3751 9.27877 57.1456 9.09619 58.0755 9.09619C59.5103 9.09619 60.6791 9.58311 61.3965 10.3745C62.5389 11.6219 62.6187 13.4472 62.6187 14.421V23.0005H58.7929V16.1245C58.7929 15.4247 58.7929 14.2076 58.2879 13.4774C57.9692 13.0213 57.4646 12.7472 56.9065 12.7472C56.2689 12.7472 55.7373 13.082 55.4187 13.5689C54.9138 14.2991 54.8342 15.3639 54.8342 16.2463V23.0004H51.0086V15.9418C51.0086 15.029 50.982 13.9641 50.3975 13.2947C49.999 12.8386 49.5207 12.7471 49.1222 12.7471C48.6173 12.7471 48.1659 12.8994 47.7938 13.2947C47.0764 14.086 47.0498 15.6071 47.0498 16.0636V23.0004H43.2243V9.43082L43.224 9.43094Z" fill="#532322"/>
<path d="M67.8001 1.09473C69.0489 1.09473 70.0319 2.22073 70.0319 3.6507C70.0319 5.08053 69.0489 6.20615 67.8001 6.20615C66.5515 6.20615 65.5685 5.08053 65.5685 3.6507C65.5685 2.22073 66.5515 1.09473 67.8001 1.09473ZM70.0319 9.69189V23.2615L65.8874 23.0007V9.43112L70.0319 9.69189Z" fill="#532322"/>
<path d="M72.9534 9.4301H76.779V11.0426C77.9482 9.339 79.3298 9.06494 80.4454 9.06494C81.4816 9.06494 82.8367 9.27793 83.8461 10.4342C84.9621 11.712 85.0416 13.3244 85.0416 14.4201V22.9997H81.216V16.0327C81.216 15.1503 81.1897 14.0243 80.5784 13.3246C80.2861 12.9898 79.8079 12.7161 79.1173 12.7161C78.32 12.7161 77.8151 13.0813 77.523 13.4463C76.8852 14.1766 76.779 15.1503 76.779 16.0327V22.9997H72.9534V9.4301Z" fill="#532322"/>
<path d="M100.93 23.0006H97.1041V21.3578C96.5197 22.3311 95.4568 23.4571 93.3583 23.4571C91.6045 23.4571 90.3295 22.818 89.2933 21.6009C88.0712 20.2012 87.4337 18.2542 87.4337 16.1547C87.4337 13.9036 88.1507 12.0474 89.2933 10.8C90.3295 9.67439 91.7906 8.97462 93.4115 8.97462C94.7132 8.97462 96.1479 9.46153 97.1042 10.9522V0.820801H100.93V23.0003L100.93 23.0006ZM92.2953 13.6602C91.7373 14.2689 91.3654 15.1512 91.3654 16.2465C91.3654 17.2506 91.7373 18.1324 92.2953 18.7412C92.8797 19.3803 93.6238 19.6843 94.2881 19.6843C95.005 19.6843 95.8554 19.3495 96.4665 18.6805C96.9183 18.1936 97.3432 17.3721 97.3432 16.2466C97.3432 15.0902 96.9446 14.2993 96.4928 13.7517C95.8821 13.0215 95.1647 12.7476 94.3412 12.7476C93.5707 12.7476 92.9064 12.9908 92.2953 13.6603V13.6602Z" fill="#532322"/>
<path d="M116.261 16.9758H107.414C107.414 17.706 107.653 18.6797 108.131 19.2881C108.716 20.0183 109.513 20.14 110.097 20.14C110.655 20.14 111.24 20.0181 111.638 19.7445C111.692 19.7137 112.143 19.3794 112.462 18.6185L116.075 19.0447C115.544 20.9611 114.481 21.9652 113.79 22.4522C112.648 23.243 111.373 23.4564 110.044 23.4564C108.264 23.4564 106.697 23.0912 105.315 21.5091C104.279 20.3224 103.535 18.5274 103.535 16.2757C103.535 14.3286 104.146 12.3207 105.342 10.921C106.776 9.27795 108.556 8.97388 109.885 8.97388C111.213 8.97388 113.126 9.24754 114.587 11.0121C115.995 12.716 116.261 14.8458 116.261 16.5189V16.9755V16.9758ZM112.727 14.3591C112.701 14.2372 112.515 13.3858 111.957 12.777C111.532 12.3208 110.921 12.0165 110.15 12.0165C109.167 12.0165 108.583 12.473 108.211 12.8989C107.919 13.2639 107.653 13.7507 107.547 14.3591H112.727Z" fill="white"/>
<path d="M131.564 23.0006H127.738V21.3578C127.154 22.3311 126.091 23.4571 123.992 23.4571C122.239 23.4571 120.964 22.818 119.927 21.6009C118.705 20.2012 118.068 18.2542 118.068 16.1547C118.068 13.9036 118.785 12.0474 119.927 10.8C120.964 9.67439 122.425 8.97462 124.046 8.97462C125.347 8.97462 126.782 9.46153 127.738 10.9522V0.820801H131.564V23.0003L131.564 23.0006ZM122.929 13.6602C122.371 14.2689 121.999 15.1512 121.999 16.2465C121.999 17.2506 122.371 18.1324 122.929 18.7412C123.514 19.3803 124.258 19.6843 124.922 19.6843C125.639 19.6843 126.489 19.3495 127.101 18.6805C127.552 18.1936 127.977 17.3721 127.977 16.2466C127.977 15.0902 127.579 14.2993 127.127 13.7517C126.516 13.0215 125.799 12.7476 124.975 12.7476C124.205 12.7476 123.54 12.9908 122.929 13.6603V13.6602Z" fill="white"/>
</svg>
