<svg width="407" height="464" viewBox="0 0 407 464" fill="none" xmlns="http://www.w3.org/2000/svg">
<path d="M54.874 66.0377C56.7171 63.6384 59.991 62.8193 62.7598 64.1022C65.5281 65.3851 67.0195 68.4117 66.3809 71.3688L66.3125 71.6549C61.8163 88.7297 58.5755 112.573 64.9375 138.99L65.1777 139.973C75.5277 181.488 104.98 209.787 133.385 228.127C161.983 246.591 188.804 254.481 191.749 255.303L192.057 255.398C195.198 256.443 197.07 259.705 196.346 262.971C195.598 266.343 192.345 268.54 188.938 267.976C182.169 266.855 172.984 265.665 162.002 265.227L159.781 265.15H159.771C159.761 265.15 159.745 265.149 159.724 265.148C159.682 265.147 159.618 265.145 159.534 265.143C159.366 265.139 159.115 265.133 158.796 265.126C158.156 265.111 157.24 265.094 156.145 265.081C153.944 265.054 151.054 265.044 148.23 265.111L148.231 265.112C134.98 265.429 121.266 269.098 106.872 272.939C93.2901 276.564 78.9473 280.392 65.2305 280.498L63.9053 280.496C51.4291 280.369 33.4656 277.004 11.916 261.446C10.4904 260.417 9.54186 258.854 9.28809 257.114C6.17281 235.755 4.05294 203.115 12.0615 164.704L12.5186 162.56C22.2533 117.734 41.5783 85.0373 54.7002 66.274L54.874 66.0377Z" fill="#EA9127" stroke="white" stroke-width="13" stroke-linejoin="round"/>
<path d="M147.553 262.003C168.361 260.186 197.892 262.592 234.98 281.721C237.935 283.245 239.249 286.74 238.073 289.814L237.952 290.11C230.177 307.823 221.114 333.588 217.085 365.743L216.897 367.279C212.987 399.989 215.714 427.588 219.118 446.874C219.484 448.945 218.825 451.066 217.349 452.564C215.873 454.063 213.763 454.756 211.686 454.422C190.639 451.037 110.54 435.686 55.593 364.671L54.3 362.982C28.9953 329.631 18.1238 295.912 13.1086 273.279L12.6418 271.124C12.0484 268.326 13.3535 265.469 15.8566 264.086C17.9185 262.946 20.3936 263.028 22.3498 264.205L23.3439 264.794C28.4864 267.805 36.2367 271.715 46.133 274.388L46.9758 274.61C64.6275 279.193 79.6053 277.281 95.0236 273.562C110.375 269.86 127.444 263.907 146.569 262.093L147.553 262.003Z" fill="#EA9127" stroke="white" stroke-width="13" stroke-linejoin="round"/>
<path d="M226.813 282.083C228.75 279.514 232.301 278.74 235.145 280.312C238.081 281.935 239.299 285.525 237.957 288.6C233.818 298.086 229.945 308.428 226.611 319.622V319.623C211.775 369.425 213.956 414.7 219.115 446.975C219.446 449.05 218.754 451.157 217.257 452.631C215.76 454.106 213.642 454.766 211.573 454.403C177.188 448.369 129.471 433.987 87.0785 397.351L86.0785 396.482C79.9645 391.136 74.3666 385.676 69.2416 380.192L68.223 379.095C66.4982 377.226 66.0224 374.521 67.0052 372.175C67.9882 369.829 70.2492 368.273 72.7914 368.191L74.3646 368.133C90.8277 367.472 113.491 364.493 138.327 354.445L139.477 353.975C187.994 333.97 215.381 298.833 226.63 282.338L226.813 282.083Z" fill="#903518" stroke="white" stroke-width="13" stroke-linejoin="round"/>
<path d="M58.5664 63.526C60.5039 63.3522 62.4172 64.0551 63.7812 65.442H63.7822C65.3007 66.986 65.9433 69.177 65.5195 71.2819L65.4209 71.7018C61.8528 84.8576 58.0118 106.304 62.4795 131.701L62.6992 132.916C71.3517 179.557 102.502 207.914 115.571 218.246C117.395 219.589 118.608 220.556 119.101 220.957L119.352 221.171C121.87 223.436 122.233 227.288 120.13 229.991C118.027 232.694 114.205 233.289 111.39 231.405L111.12 231.214C110.19 230.522 109.038 229.648 107.701 228.595C102.971 225.125 93.6277 218.822 82.0996 213.876C66.5168 207.189 48.2938 203.541 32.1318 210.828L31.3643 211.183C27.2293 213.145 22.4569 216.197 17.665 221.136C15.8098 223.049 12.9754 223.636 10.5137 222.617C8.05202 221.598 6.46188 219.179 6.50098 216.515C6.83045 194.155 9.98453 161.488 23.5234 124.942L24.3789 122.664C33.2844 99.2705 44.1436 80.4765 53.7754 66.3395L53.9883 66.0455C55.091 64.6066 56.7498 63.689 58.5664 63.526Z" fill="#F6D365" stroke="white" stroke-width="13" stroke-linejoin="round"/>
<path d="M19.3527 261.514C21.1066 261.609 22.7539 262.411 23.9113 263.745C34.399 275.837 56.8749 298.135 92.1721 308.695H92.1711C161.476 329.429 220.287 286.817 228.089 280.938L228.328 280.766C230.832 279.051 234.212 279.294 236.445 281.388C238.679 283.481 239.14 286.838 237.59 289.447L237.434 289.697C227.236 305.231 204.473 335.444 164.327 357.521L162.403 358.566C125.64 378.271 91.7171 381.885 73.3937 382.5C71.4756 382.564 69.6266 381.778 68.343 380.351C58.1825 369.057 45.642 352.898 34.5568 331.538L33.4894 329.455C22.1287 307.021 16.1881 286.386 12.9348 270.784L12.6291 269.29C12.2434 267.379 12.7354 265.396 13.9699 263.888C15.2045 262.379 17.0508 261.504 19.0002 261.504L19.3527 261.514Z" fill="#CC5520" stroke="white" stroke-width="13" stroke-linejoin="round"/>
<path d="M197.375 6.5L197.807 6.51465C198.89 6.58661 199.922 6.93068 200.819 7.49219L200.821 7.48926C208.713 12.4244 219.925 20.7244 230.261 33.7158H230.262C238.85 44.5096 243.971 54.9462 247.045 62.7217C247.773 64.5639 247.621 66.6377 246.633 68.3545C245.645 70.0711 243.928 71.2439 241.969 71.5391C233.7 72.7848 224.719 74.4927 215.183 76.8379L213.269 77.3154C203.846 79.6992 195.202 82.3771 187.388 85.1309C185.566 85.7727 183.554 85.5709 181.896 84.5811C180.341 83.653 179.248 82.1221 178.871 80.3623L178.806 80.0068C177.548 71.9847 176.714 60.7954 178.637 47.6992L178.88 46.126C181.495 29.9888 187.289 17.5906 191.724 9.78809V9.78906C192.859 7.7901 194.998 6.50014 197.374 6.5H197.375Z" fill="#EA9127" stroke="white" stroke-width="13" stroke-linejoin="round"/>
<path d="M384.251 12.5028C386.685 12.5907 388.874 14.0348 389.908 16.2538C393.555 24.0821 398.136 36.2582 399.831 51.8075L399.984 53.2928C401.447 68.5628 399.53 81.1883 397.641 89.4481C397.207 91.3463 395.945 92.9495 394.202 93.8173C392.458 94.685 390.418 94.7263 388.642 93.9286C381.329 90.6446 373.225 87.3704 364.362 84.3182L362.579 83.7108C353.566 80.6726 345.024 78.2897 337.109 76.41L335.535 76.0409C333.635 75.601 332.033 74.3311 331.17 72.5819C330.308 70.8328 330.277 68.7892 331.085 67.0145L331.805 65.4637C335.567 57.5133 341.788 46.6876 351.857 35.8759L352.848 34.8251C363.096 24.0929 373.478 17.3516 380.897 13.2958L381.261 13.1112C382.122 12.7087 383.062 12.4989 384.015 12.4989L384.251 12.5028Z" fill="#EA9127" stroke="white" stroke-width="13" stroke-linejoin="round"/>
<path d="M253.112 66.5088C256.088 66.3398 258.816 68.2252 259.694 71.0996L259.919 71.8477C262.187 79.5638 264.08 90.7234 260.525 102.688L260.345 103.276C255.442 119.014 243.291 127.588 234.588 135.388L233.757 136.14C223.894 145.172 211.538 159.492 201.392 182.48L200.91 183.582C199.836 186.063 197.339 187.62 194.639 187.492C192.023 187.369 189.746 185.689 188.847 183.247L188.764 183.008C184.796 170.798 180.913 155.386 178.906 137.344L178.718 135.59C176.893 117.953 177.351 102.408 178.576 89.8066L178.602 89.585C178.903 87.3028 180.392 85.3429 182.524 84.4453C193.442 79.8488 206.638 75.2283 221.906 71.6729L223.999 71.1953C234.415 68.866 244.106 67.4148 252.823 66.5322L253.112 66.5088Z" fill="#E39334" stroke="white" stroke-width="13" stroke-linejoin="round"/>
<path d="M263.297 64.1842C275.117 63.3122 288.979 63.1257 304.387 64.5133H304.388L306.169 64.6793C323.314 66.3468 338.303 69.5834 350.713 73.1119L353.243 73.8463L353.476 73.9196C355.858 74.7216 357.574 76.8328 357.859 79.3453C358.952 88.9507 358.533 97.4194 357.462 104.582L357.239 105.997C352.97 131.833 338.625 151.46 324.404 165.151C310.177 178.848 295.727 186.945 290.549 189.726C288.675 190.733 286.427 190.759 284.53 189.796L223.057 158.575C221.351 157.709 220.114 156.135 219.674 154.274C219.234 152.413 219.636 150.452 220.773 148.915C222.522 146.551 225.364 142.825 229.104 138.46V138.459L230.455 136.901C237.092 129.332 242.026 125.015 245.745 121.557C249.554 118.015 251.936 115.52 254.348 110.905H254.349L254.714 110.189C258.394 102.808 259.097 95.9708 259.405 92.5739V92.5729L259.474 91.7623C260.103 83.4321 258.645 76.6576 257.424 72.5084L257.425 72.5074C256.977 70.9845 257.094 69.3253 257.803 67.8531L257.804 67.8522L257.917 67.6276C258.989 65.6042 261.041 64.3096 263.297 64.1842Z" fill="#F6D365" stroke="white" stroke-width="13" stroke-linejoin="round"/>
<path d="M357.335 76.7063C359.152 75.4102 361.507 75.1364 363.573 75.9817C374.069 80.2775 384.604 84.5892 395.1 88.885C395.121 88.8933 395.142 88.9019 395.163 88.9104C395.178 88.9164 395.193 88.923 395.207 88.929H395.206C397.328 89.7986 398.915 91.7626 399.201 94.1829L399.357 95.5559C400.068 101.995 400.498 108.892 400.5 116.197L400.494 117.768C400.256 147.747 392.879 172.733 385.395 190.81L384.67 192.537C383.474 195.355 380.474 196.956 377.467 196.382C374.461 195.808 372.262 193.213 372.189 190.153C372.163 189.093 371.534 176.258 360.636 168.795L360.11 168.444C349.893 161.811 338.927 164.94 336.602 165.725L336.255 165.847C333.454 166.883 330.306 165.876 328.626 163.406C326.946 160.937 327.165 157.64 329.158 155.414C334.577 149.361 341.628 140.038 346.988 127.265L347.349 126.391C354.596 108.652 355.124 92.7054 354.668 83.2737L354.62 82.3674C354.493 80.1394 355.519 78.0024 357.335 76.7063Z" fill="#EA9127" stroke="white" stroke-width="13" stroke-linejoin="round"/>
<path d="M195.124 187.779C196.876 186.478 199.093 186.182 201.049 186.83L201.05 186.829C205.281 188.235 210.975 189.933 217.807 191.42L217.807 191.421C225.845 193.17 234.859 194.494 246.956 195.086L248.789 195.168C257.662 195.532 262.28 195.181 266.688 194.79C271.372 194.374 276.007 193.892 284.481 194.096L286.228 194.146L288.17 194.221C297.597 194.629 302.967 195.587 308.238 196.438C313.58 197.299 319.001 198.083 329.543 198.131H331.516C341.23 198.085 348.716 197.373 354.869 196.493L356.321 196.279C363.506 195.187 369.595 193.771 374.307 192.5L374.551 192.439C377.07 191.863 379.703 192.835 381.241 194.932C382.828 197.096 382.922 200.013 381.477 202.274C365.426 227.403 349.375 252.533 333.324 277.662C332.547 278.878 331.39 279.799 330.036 280.283L329.763 280.374C319.753 283.462 304.325 286.974 285.328 286.443L283.478 286.38C265.255 285.625 250.557 281.385 240.705 277.678L239.766 277.32C238.336 276.77 237.147 275.732 236.407 274.39L193.307 196.133C191.738 193.286 192.515 189.718 195.124 187.779Z" fill="#F6D365" stroke="white" stroke-width="13" stroke-linejoin="round"/>
<path d="M241.225 279.507C243.062 279.59 244.778 280.447 245.948 281.866C257.97 296.447 269.993 311.027 282.015 325.608L282.185 325.822C283.825 327.988 283.942 330.952 282.479 333.242L282.328 333.468C271.715 348.643 260.088 367.679 249.49 390.586L248.467 392.816C238.784 414.112 232.188 433.927 227.619 451.007L227.183 452.652C226.402 455.626 223.642 457.646 220.571 457.493C217.595 457.343 215.115 455.194 214.527 452.298L214.476 452.016C209.521 420.691 206.946 375.337 220.662 324.323L221.436 321.504C225.353 307.496 230.028 294.786 234.97 283.411L235.097 283.138C235.362 282.598 235.7 282.097 236.103 281.65L236.31 281.431L236.558 281.193C237.826 280.039 239.503 279.43 241.225 279.507Z" fill="#F6D365" stroke="white" stroke-width="13" stroke-linejoin="round"/>
<path d="M317.568 288.499L317.812 288.503C320.316 288.597 322.553 290.125 323.544 292.442C323.902 293.279 324.073 294.162 324.068 295.038C324.086 315.336 326.698 331.37 329.064 342.221H329.065L329.464 344.02C333.637 362.428 339.092 375.6 342.888 388.219C346.634 400.673 348.631 412.433 342.979 424.761L342.703 425.348C338.038 435.116 330.315 441.433 326.651 444.163L325.351 445.113C318.168 450.294 308.737 454.492 288.412 456.497L286.411 456.684C273.677 457.811 255.346 458.255 233.087 454.724L230.921 454.37C229.119 454.066 227.528 453.018 226.537 451.482C225.547 449.946 225.249 448.063 225.717 446.296C231.976 422.65 242.789 391.505 262.162 358.077L263.746 355.372C280.154 327.625 297.895 306.187 312.867 290.509L312.868 290.511C312.902 290.476 312.935 290.439 312.97 290.404C314.189 289.184 315.843 288.499 317.568 288.499H317.568Z" fill="#903518" stroke="white" stroke-width="13" stroke-linejoin="round"/>
<path d="M214.788 159.662C216.49 156.817 220.087 155.696 223.12 157.116L226.554 158.733C233.278 161.919 239.127 164.802 243.964 167.236L246.298 168.415L246.299 168.416L249.29 169.937C252.272 171.459 255.282 173.017 258.867 174.955H258.868L260.518 175.853C267.59 179.719 273.587 183.266 278.335 186.184L280.438 187.486L280.716 187.67C280.989 187.86 281.247 188.071 281.488 188.301H281.489C283.573 190.29 284.099 193.414 282.781 195.976C281.462 198.539 278.614 199.927 275.784 199.388C266.709 197.659 256.402 196.215 245.033 195.48L242.745 195.344C235.66 194.951 228.967 194.882 222.726 195.034L220.078 195.112C217.589 195.199 215.276 193.856 214.113 191.669L214.004 191.454C212.643 188.649 210.666 183.639 210.51 177.135L210.501 176.5C210.459 168.732 213.067 162.87 214.629 159.942L214.788 159.662Z" fill="#532322" stroke="white" stroke-width="13" stroke-linejoin="round"/>
<path d="M350.378 159.901C351.924 159.333 353.632 159.372 355.156 160.019C356.781 160.708 358.057 162.028 358.688 163.677C359.985 167.063 362.184 174.102 361.294 183.082V183.083C360.598 190.104 358.302 195.386 356.713 198.412C355.454 200.809 352.842 202.174 350.156 201.84C343.316 200.989 335.817 200.41 327.745 200.31H327.744C316.687 200.172 306.607 200.958 297.707 202.183L295.942 202.434C292.896 202.88 289.955 201.128 288.896 198.238C287.838 195.347 288.952 192.11 291.565 190.484C301.044 184.585 311.387 178.653 322.591 172.906L324.843 171.758C333.539 167.361 341.974 163.47 350.071 160.022L350.378 159.901Z" fill="#532322" stroke="white" stroke-width="13" stroke-linejoin="round"/>
<path d="M247.592 279.395C249.138 277.076 251.991 276.001 254.684 276.723C262.539 278.829 272.637 280.772 284.459 281.196L285.575 281.232C297.063 281.548 306.977 280.328 314.753 278.807C317.494 278.272 320.27 279.546 321.65 281.974C322.988 284.325 322.725 287.249 321.015 289.322L320.845 289.52L287.914 326.335C286.626 327.775 284.764 328.567 282.833 328.497C280.902 328.426 279.102 327.5 277.922 325.97L247.853 286.97C246.151 284.762 246.046 281.715 247.592 279.395Z" fill="#532322" stroke="white" stroke-width="13" stroke-linejoin="round"/>
<path d="M350.26 159.951C351.821 159.339 353.564 159.352 355.122 159.997C356.783 160.686 358.085 162.031 358.718 163.714C359.944 166.976 361.864 173.277 361.44 181.359L361.391 182.147C360.868 189.572 358.572 195.169 357.028 198.282C355.843 200.671 353.325 202.086 350.684 201.873L350.429 201.848C344.076 201.083 337.192 200.549 329.839 200.394L328.362 200.367C317.117 200.21 306.839 200.973 297.724 202.189L295.916 202.438C294.524 202.636 293.105 202.376 291.872 201.699H291.871C289.847 200.588 288.564 198.485 288.502 196.177C288.44 193.868 289.608 191.7 291.569 190.481C297.072 187.061 304.543 182.613 313.625 177.777L315.406 176.834C318.302 175.312 320.851 174.021 323.378 172.76L326.42 171.247C332.515 168.222 340.475 164.378 349.95 160.082L350.26 159.951Z" fill="#532322" stroke="white" stroke-width="13" stroke-linejoin="round"/>
<path d="M252.764 66.5029C254.945 66.4232 257.033 67.4463 258.305 69.2432C259.662 71.1599 259.88 73.6599 258.874 75.7822C256.853 80.0479 253.41 86.5361 247.96 93.5791L247.427 94.2627C239.02 104.926 230.618 110.884 223.276 115.561C215.955 120.223 210.831 123.03 206.667 127.645L206.268 128.097C200.555 134.689 194.032 148.364 201.127 179.558L201.181 179.821C201.684 182.547 200.4 185.306 197.965 186.67C195.451 188.078 192.31 187.662 190.248 185.649H190.247C189.462 184.883 188.884 183.929 188.567 182.879C182.819 163.864 178.082 140.54 177.55 113.84L177.512 111.245C177.44 103.77 177.706 96.6205 178.223 89.8291L178.244 89.6006C178.506 87.2547 180.022 85.2266 182.213 84.3174L184.226 83.4932C194.412 79.3702 206.424 75.2883 220.112 72.0254L222.299 71.5146C233.182 69.0233 243.284 67.4759 252.327 66.5342L252.764 66.5029Z" fill="#CC5520" stroke="white" stroke-width="13" stroke-linejoin="round"/>
<path d="M263.909 64.0299C275.961 63.26 290.114 63.1971 305.841 64.735L307.565 64.9088C324.162 66.6433 338.695 69.7776 350.775 73.1647L353.239 73.8688L353.473 73.941C355.868 74.7366 357.595 76.8535 357.881 79.3756C358.652 86.1568 358.939 95.0398 357.326 105.214L357.164 106.203C354.035 124.683 346.129 138.164 340.823 145.731C340.471 146.232 340.048 146.686 339.56 147.077C338.017 148.31 335.997 148.775 334.07 148.34C324.587 146.2 308.461 141.222 292.483 128.714L291.722 128.113C267.278 108.603 258.779 83.5509 255.97 73.2809L255.715 72.3336C255.222 70.4645 255.586 68.4725 256.709 66.899C257.832 65.3255 259.598 64.3339 261.527 64.193L263.909 64.0299Z" fill="#CC5520" stroke="white" stroke-width="13" stroke-linejoin="round"/>
<path d="M354.309 78.4612C355.99 75.8687 359.263 74.8181 362.139 75.9475L395.102 88.8948L395.309 88.9797C397.425 89.896 398.903 91.8704 399.179 94.1711L399.418 96.2629C400.529 106.508 400.987 118.653 399.807 132.209L399.679 133.616C397.397 157.707 390.746 177.346 384.601 191.323L384.008 192.658C382.566 195.872 378.826 197.352 375.576 195.996C372.325 194.64 370.746 190.942 372.014 187.656C372.834 185.533 376.575 175.446 377.532 162.865C378.476 150.445 376.658 136.409 367.572 125.009L367.133 124.468C364.414 121.166 360.462 117.349 354.67 113.895C352.315 112.489 351.095 109.757 351.621 107.065C352.152 104.351 352.605 101.431 352.927 98.3206L353.035 97.2268C353.536 91.7864 353.537 86.7973 353.275 82.3821L353.276 82.3811C353.196 81.0351 353.532 79.6599 354.309 78.4612Z" fill="#CC5520" stroke="white" stroke-width="13" stroke-linejoin="round"/>
<path d="M381.203 13.1434C382.713 12.415 384.453 12.2971 386.054 12.8231C387.762 13.3842 389.162 14.6282 389.92 16.2587L390.572 17.6874C393.744 24.7638 397.156 34.308 399.041 45.9354L399.231 47.1454L399.232 47.1464L399.471 48.8182C401.73 65.457 399.851 79.399 397.856 88.538L397.656 89.4354C396.951 92.543 394.099 94.6825 390.918 94.4872C387.738 94.2919 385.168 91.8196 384.849 88.6493C383.891 79.1196 377.938 71.0518 369.636 67.5809L369.239 67.4188C360.066 63.7792 349.291 66.1766 342.141 73.7255L341.803 74.0887C339.646 76.4535 336.089 76.8964 333.418 75.1327C330.748 73.369 329.758 69.9235 331.086 67.0116C334.635 59.2305 340.44 48.7403 349.814 38.1327L350.866 36.9598C361.739 24.9876 373.013 17.6186 380.904 13.2977L381.203 13.1434Z" fill="#CC5520" stroke="white" stroke-width="13" stroke-linejoin="round"/>
<path d="M195.782 6.69824C197.499 6.26456 199.318 6.54984 200.819 7.48828L202.162 8.33984C208.987 12.7344 217.431 19.1622 225.652 28.2783L226.72 29.4785C237.594 41.8804 243.66 54.1868 247.042 62.7148L247.148 62.999C248.16 65.9394 246.943 69.2072 244.216 70.7598C241.489 72.3122 238.057 71.6901 236.045 69.3184L235.855 69.083C229.33 60.6314 218.193 57.1528 208.435 60.1465L207.971 60.2939C199.457 63.0988 193.162 70.5278 191.728 79.4863L191.662 79.9141C191.207 83.1184 188.464 85.4998 185.228 85.5H185.227C182.126 85.5 179.473 83.3132 178.859 80.3018L178.805 80.0078C177.531 71.8846 176.665 60.3275 178.78 46.7539L179.03 45.2217C181.713 29.5078 187.376 17.4304 191.725 9.78613L191.896 9.50293C192.784 8.11055 194.173 7.10488 195.782 6.69824Z" fill="#CC5520" stroke="white" stroke-width="13" stroke-linejoin="round"/>
<path d="M318.867 334.023C320.597 333.284 322.569 333.329 324.271 334.16C326.085 335.046 327.386 336.725 327.789 338.704L328.114 340.275C328.778 343.433 329.521 346.675 330.354 349.993L330.777 351.658V351.659L331.143 353.059C332.984 360.031 335.017 366.538 337.133 372.561C337.85 374.602 337.504 376.865 336.212 378.599C334.92 380.333 332.849 381.311 330.689 381.208C327.865 381.072 325.134 381.116 322.495 381.312L321.369 381.405C299.905 383.363 281.777 395.575 267.398 410.293C253.951 424.056 244.272 439.517 238.734 449.282L237.683 451.157C236.079 454.044 232.564 455.27 229.513 454.006C226.461 452.743 224.843 449.391 225.75 446.215C229.924 431.606 239.042 406.587 259.463 381.485L260.444 380.29C281.566 354.776 304.82 340.998 318.525 334.181L318.867 334.023Z" fill="#CC5520" stroke="white" stroke-width="13" stroke-linejoin="round"/>
<path d="M223.316 330.542C226.603 330.172 229.645 332.329 230.381 335.554C235.033 355.928 239.685 376.302 244.337 396.677L244.387 396.918C244.615 398.126 244.496 399.377 244.041 400.523C240.399 409.695 236.82 419.579 233.447 430.153C231.283 436.936 229.352 443.539 227.625 449.931L226.899 452.657C226.114 455.636 223.347 457.654 220.271 457.492C217.291 457.335 214.814 455.173 214.238 452.27L214.188 451.987C213.024 444.4 212.079 436.415 211.437 428.056L211.312 426.379C208.813 391.427 212.406 360.59 217.685 335.655V335.656C218.252 332.966 220.486 330.861 223.316 330.542Z" fill="#CC5520" stroke="white" stroke-width="13" stroke-linejoin="round"/>
<path d="M195.875 187.298C199.018 185.574 202.963 186.721 204.693 189.86L204.706 189.883L205.342 191.027C211.945 202.681 219.387 209.103 224.594 212.716L225.386 213.256C242.106 224.45 263.209 225.948 284.489 222.952C306.046 219.917 326.702 212.432 341.28 207.123L342.61 206.635C356.254 201.581 366.791 196.35 372.969 193.094L373.215 192.971C375.777 191.755 378.848 192.341 380.783 194.443C382.78 196.614 383.066 199.857 381.478 202.343C365.443 227.45 349.407 252.557 333.372 277.664C332.595 278.881 331.437 279.802 330.083 280.286L329.81 280.377C319.996 283.405 305.056 286.81 286.682 286.474L284.894 286.43C265.955 285.836 250.74 281.448 240.735 277.686L239.783 277.323C238.307 276.756 237.142 275.697 236.423 274.392V274.393L193.307 196.134L193.294 196.111C191.577 192.965 192.732 189.021 195.875 187.298Z" fill="#EA9127" stroke="white" stroke-width="13" stroke-linejoin="round"/>
<path d="M258.672 65.194C260.085 63.9071 261.999 63.3025 263.906 63.5563C265.941 63.8271 267.729 65.0427 268.728 66.8356C273.648 75.6672 280.051 85.5309 288.37 95.5494H288.371L289.168 96.5035C305.937 116.426 323.801 129.104 337.271 136.95C338.858 137.874 339.98 139.427 340.359 141.223C340.739 143.02 340.341 144.893 339.264 146.38L333.11 154.876C332.517 155.695 331.742 156.363 330.848 156.828L330.458 157.014C315.091 163.755 286.671 173.347 252.397 167.884L250.762 167.613C240.429 165.83 231.32 162.966 223.554 159.811C221.709 159.062 220.309 157.508 219.756 155.595C219.203 153.682 219.557 151.621 220.717 150.003C227.498 140.541 233.794 133.53 238.416 128.775L239.91 127.25C247.048 120.023 249.262 118.615 252.771 113.033L253.189 112.351C257.395 105.311 258.186 98.4071 258.668 94.7985L258.784 93.8678C259.82 84.9255 258.403 77.486 257.09 72.7926L256.82 71.861C256.145 69.6001 256.748 67.1507 258.396 65.4615L258.396 65.4606L258.672 65.194Z" fill="#EA9127" stroke="white" stroke-width="13" stroke-linejoin="round"/>
<path d="M273.675 318.503C275.628 318.485 277.486 319.345 278.735 320.847L280.367 322.81C280.911 323.464 281.455 324.118 281.998 324.771L282.169 324.986C283.884 327.234 283.952 330.35 282.308 332.677C277.169 339.952 272.023 347.791 266.982 356.209L265.975 357.901C252.082 381.39 242.208 403.992 235.099 424.183L234.419 426.129C233.434 428.973 230.627 430.77 227.632 430.471C224.73 430.182 222.389 428 221.879 425.152L221.835 424.875C219.169 405.162 217.297 383.858 216.702 361.135L216.648 358.931C216.463 350.685 216.456 342.64 216.6 334.804L216.62 334.407C216.778 332.431 217.831 330.626 219.491 329.518C221.263 328.336 223.501 328.097 225.482 328.877C226.983 329.469 232.391 331.519 239.3 332.199C246.222 332.88 254.122 332.137 261.128 327.729L261.709 327.354C264.575 325.453 266.851 323.207 268.66 320.945L268.896 320.667C270.111 319.311 271.843 318.521 273.675 318.503Z" fill="#EA9127" stroke="white" stroke-width="13" stroke-linejoin="round"/>
<path d="M313.109 290.333C314.945 288.551 317.665 288.007 320.054 288.965C322.519 289.954 324.135 292.344 324.134 295C324.132 299.871 324.288 305.001 324.652 310.362L324.791 312.288C325.525 321.865 326.816 330.674 328.378 338.612C328.934 341.438 327.564 344.292 325.012 345.626C312.192 352.33 292.161 364.82 273.417 386.502L272.526 387.542C252.206 411.42 242.707 435.473 238.206 449.93C237.251 452.998 234.199 454.907 231.023 454.424C227.946 453.956 225.648 451.379 225.507 448.298L225.5 447.999C225.5 447.433 225.574 446.87 225.72 446.324C232.961 419.156 245.936 382.942 270.188 344.961L271.52 342.891C285.308 321.623 299.772 304.285 312.934 290.508L313.109 290.333Z" fill="#EA9127" stroke="white" stroke-width="13" stroke-linejoin="round"/>
<path d="M199.667 6.51367C200.851 6.59184 201.973 6.99473 202.927 7.65234L202.929 7.64941C206.763 10.2949 210.847 13.4446 215.01 17.1875H215.011C223.455 24.7789 229.753 32.5982 234.363 39.332L234.54 39.6035C236.282 42.4365 235.603 46.1568 232.924 48.1855C230.158 50.2798 226.235 49.8335 224.011 47.1709C216.699 38.4159 206.8 37.1892 200.978 40.5889L200.704 40.7549C195.637 43.9121 193.951 50.2962 193.484 52.6836L193.405 53.1055C192.809 56.5618 189.578 58.9213 186.104 58.4375C182.63 57.9537 180.166 54.8013 180.536 51.3135L180.688 49.9648C181.499 43.1172 183.137 34.6876 186.46 25.4844L186.873 24.3594C188.943 18.8188 191.258 14.0044 193.509 9.92969C194.624 7.8473 196.81 6.5 199.237 6.5L199.667 6.51367Z" fill="#903518" stroke="white" stroke-width="13" stroke-linejoin="round"/>
<path d="M384.291 12.4989L384.569 12.5048C386.974 12.6068 389.094 14.028 390.128 16.1405C392.21 20.198 394.334 25.0569 396.115 30.6786L396.471 31.8241V31.8251L396.752 32.7723C399.595 42.5333 400.409 51.2435 400.499 57.911L400.496 58.2372C400.376 61.5895 397.706 64.3245 394.319 64.4911C390.824 64.663 387.82 62.0367 387.524 58.5497C387.39 56.9731 386.48 49.765 381.064 45.8876L380.803 45.7059C374.965 41.7476 364.75 42.2907 356.991 49.8387L356.623 50.203C354.184 52.671 350.238 52.7883 347.656 50.4696C345.075 48.1509 344.771 44.2137 346.964 41.5253C351.772 35.6316 358.392 28.711 367.219 22.1542L368.137 21.4803C372.717 18.1495 377.148 15.4536 381.219 13.2704L381.22 13.2733C382.15 12.7747 383.2 12.4989 384.29 12.4989H384.291Z" fill="#903518" stroke="white" stroke-width="13" stroke-linejoin="round"/>
<path d="M359.418 212.393C361.712 210.111 365.361 209.856 367.954 211.844C370.631 213.896 371.294 217.654 369.481 220.498L333.047 277.632C332.217 278.934 330.951 279.898 329.475 280.351C319.823 283.314 306 286.419 289.233 286.501L287.601 286.5C267.003 286.36 250.436 281.666 239.699 277.653L238.678 277.267C235.746 276.145 234.034 273.087 234.611 270.001C235.188 266.915 237.89 264.682 241.03 264.696C254.178 264.755 273.265 263.237 294.68 255.646L296.219 255.091C328.361 243.317 349.006 223.784 359.201 212.62L359.418 212.393Z" fill="#CC5520" stroke="white" stroke-width="13" stroke-linejoin="round"/>
<path d="M59.0268 69.9996C46.015 88.6054 26.7652 121.233 17.425 166.031C9.61366 203.496 11.6807 235.336 14.7203 256.176C35.1252 270.907 51.7679 273.882 62.9709 273.996C89.104 274.261 118.737 259.292 147.076 258.613C152.937 258.474 158.975 258.653 158.975 258.653C171.295 259.019 181.56 260.332 189 261.564C182.457 259.736 78.9613 229.139 57.6179 140.512C50.927 112.729 54.3551 87.741 59.0268 69.9996Z" fill="#EA9127"/>
<path d="M18.0002 269.775C22.6712 291.796 33.117 325.628 58.4782 359.054C111.872 429.43 190.898 444.656 211.717 448.004C208.231 428.258 205.44 399.999 209.443 366.508C213.465 332.852 222.913 305.92 231 287.497C194.498 268.671 165.877 266.696 146.182 268.564C109.141 272.077 82.445 291.196 43.4383 280.662C32.1252 277.608 23.446 273.049 18.0007 269.775L18.0002 269.775Z" fill="#EA9127"/>
<path d="M72.0004 374.687C89.1189 374.136 113.238 371.203 139.765 360.47C190.706 339.859 219.336 303.104 231 286C226.762 295.712 222.796 306.303 219.382 317.767C204.186 368.777 206.437 415.091 211.696 448C177.72 442.039 130.791 427.812 89.3565 391.588C83.018 386.046 77.2501 380.377 72.0004 374.687Z" fill="#903518"/>
<path d="M58.1472 69.9996C48.4414 84.2452 37.4602 103.332 28.6183 127.2C15.4035 162.871 12.3219 194.765 12 216.611C17.3822 211.063 22.8081 207.573 27.5782 205.311C65.3155 187.408 110.592 223.229 114 226C103.581 218.247 64.6736 187.375 55.0781 132.827C50.3918 106.187 54.4246 83.7271 58.1476 70.0001L58.1472 69.9996Z" fill="#F6D365"/>
<path d="M18.0007 268.004C28.8745 280.541 52.335 303.861 89.3085 314.923C161.898 336.639 223.074 292.102 231 286.13C220.957 301.43 198.355 331.386 158.332 352.837C122.75 371.909 89.912 375.408 72.1753 376.004C61.9801 364.671 49.3164 348.296 38.2878 326.518C26.8836 303.998 21.0957 283.341 18.0002 268.004H18.0007Z" fill="#CC5520"/>
<path d="M196.375 13C192.064 20.5851 186.4 32.7623 184.068 48.6431C182.262 60.9446 183.044 71.4578 184.227 79C192.213 76.1859 201.046 73.4498 210.674 71.014C221.148 68.3645 230.988 66.4689 240 65.1113C237.103 57.7826 232.275 47.9429 224.176 37.7634C214.425 25.5066 203.838 17.6674 196.375 13L196.375 13Z" fill="#EA9127"/>
<path d="M383.015 18.9989C375.792 22.9477 365.585 29.5981 355.613 40.3058C345.475 51.1919 339.467 62.0964 336 69.7082C344.543 71.686 353.825 74.2375 363.655 77.5512C373.433 80.847 382.329 84.4173 390.305 87.9989C392.143 79.961 394.009 67.536 392.37 52.5122C390.771 37.8542 386.453 26.3759 383.016 18.9989H383.015Z" fill="#EA9127"/>
<path d="M184.046 90.4359C182.856 102.68 182.41 117.784 184.183 134.921C186.073 153.187 189.965 168.75 193.946 180.999C204.588 156.424 217.759 141.061 228.367 131.346C238.043 122.486 248.752 115.426 253.139 101.343C256.509 90.5267 254.693 80.2473 252.478 72.999C243.425 73.9155 233.294 75.4624 222.38 78.0039C207.518 81.4648 194.674 85.9617 184.046 90.4359Z" fill="#E39334"/>
<path d="M262.659 70.6729C264.07 75.4657 265.767 83.4002 264.879 93.1619C264.541 96.8814 263.716 105.099 259.109 113.915C253.288 125.055 247.119 126.258 233.041 142.688C229.429 146.903 226.685 150.501 225 152.78C245.491 163.186 265.982 173.593 286.473 184C296.393 178.671 341.896 152.932 349.826 104.937C350.971 98.0088 351.491 89.6632 350.401 80.0795C337.442 76.249 321.392 72.661 302.804 70.9867C287.744 69.6304 274.2 69.817 262.659 70.6738L262.659 70.6729Z" fill="#F6D365"/>
<path d="M391.745 94.9443C392.574 101.979 393.059 109.593 392.995 117.716C392.757 147.586 385.177 172.354 377.687 189.997C377.653 188.592 376.973 172.291 362.649 162.992C348.985 154.121 334.544 159.18 333 159.751C338.763 153.315 346.27 143.389 351.981 129.78C360.33 109.886 360.682 92.0229 360.11 81.9973C370.655 86.3131 381.2 90.629 391.745 94.9448V94.9443Z" fill="#EA9127"/>
<path d="M198 192.997C212.366 219.083 226.733 245.168 241.1 271.254C250.481 274.862 264.825 279.142 282.747 279.885C301.654 280.668 317.001 277.201 326.846 274.163C342.897 249.034 358.949 223.905 375 198.776C369.773 200.186 362.917 201.767 354.789 202.928C347.933 203.908 339.536 204.68 328.514 204.631C306.589 204.533 305.445 201.321 285.013 200.643C266.622 200.033 266.53 202.6 245.639 201.578C233.197 200.97 223.827 199.599 215.425 197.771C208.322 196.226 202.402 194.46 198 192.998L198 192.997Z" fill="#F6D365"/>
<path d="M239.933 286C251.955 300.582 263.978 315.162 276 329.743C264.855 345.681 252.609 365.805 241.55 390.125C231.38 412.491 224.559 433.25 219.896 451C215.036 420.275 212.528 375.89 225.94 326.011C229.917 311.219 234.776 297.869 239.932 286.001L239.933 286Z" fill="#F6D365"/>
<path d="M316.568 294.999C301.395 310.887 283.323 332.802 266.786 361.336C247.764 394.157 237.147 424.739 231 447.96C253.576 451.761 272.115 451.335 284.838 450.209C305.79 448.355 314.363 444.302 320.548 439.841C323.177 437.944 331.274 432.103 335.838 422.547C345.651 402.002 330.269 382.858 321.713 343.606C319.271 332.401 316.583 315.88 316.568 294.999H316.568Z" fill="#903518"/>
<path d="M276 193.002C270.722 189.713 263.542 185.413 254.775 180.673C250.077 178.132 246.384 176.256 242.357 174.212C236.412 171.196 228.639 167.345 219.364 163.003C218.081 165.407 215.966 170.176 216.001 176.465C216.031 181.982 217.701 186.245 218.852 188.616C226.016 188.366 233.797 188.393 242.104 188.853C254.701 189.551 266.07 191.111 276 193.003L276 193.002Z" fill="#532322"/>
<path d="M294 196.002C303.96 189.804 314.887 183.57 326.776 177.559C335.34 173.229 343.645 169.397 351.618 166.002C352.715 168.865 354.579 174.836 353.825 182.441C353.236 188.381 351.295 192.845 349.959 195.39C342.899 194.511 335.158 193.913 326.825 193.81C314.649 193.659 303.623 194.592 294 196.002Z" fill="#532322"/>
<path d="M252 283.001C260.236 285.21 270.825 287.248 283.226 287.692C295.774 288.142 306.582 286.832 315 285.187C304.023 297.458 293.046 309.73 282.07 322.001C272.047 309.001 262.023 296.001 252 283.001Z" fill="#532322"/>
<path d="M294 196.002C299.407 192.641 306.752 188.268 315.681 183.514C320.466 180.965 324.218 179.1 328.309 177.07C334.348 174.072 342.239 170.261 351.634 166.002C352.707 168.856 354.416 174.484 353.908 181.689C353.462 188.01 351.508 192.766 350.205 195.394C343.219 194.554 335.61 193.983 327.453 193.868C315.085 193.695 303.852 194.602 294.001 196.002L294 196.002Z" fill="#532322"/>
<path d="M193.788 180.999C187.999 161.847 183.27 138.244 183.011 111.183C182.941 103.902 183.201 96.9377 183.704 90.3216C194.033 86.0359 206.397 81.7381 220.619 78.3481C232.034 75.6272 242.603 73.9776 252 72.999C250.052 77.1106 246.692 83.4276 241.322 90.2382C225.781 109.951 210.417 112.231 200.356 123.839C192.881 132.465 186.393 148.481 193.789 180.999L193.788 180.999Z" fill="#CC5520"/>
<path d="M334.501 142C325.436 139.954 309.974 135.162 294.777 123.033C271.147 104.173 263.39 79.7309 261 70.6754C273.242 69.7807 287.852 69.6045 304.208 71.2039C322.217 72.9647 337.791 76.4335 350.422 80.1094C351.165 86.6432 351.426 95.255 349.756 105.118C346.841 122.332 339.471 134.912 334.501 141.999V142Z" fill="#CC5520"/>
<path d="M358.763 81.9973C369.751 86.3131 380.738 90.6289 391.726 94.9447C393 105.574 393.585 118.471 392.208 133.004C389.936 156.992 383.171 176.417 377.078 189.997C378.91 185.251 393.049 146.926 371.151 120.336C368.014 116.527 363.507 112.194 357 108.313C357.566 105.42 358.049 102.307 358.393 98.99C359.041 92.7333 359.061 87.0163 358.764 81.9978L358.763 81.9973Z" fill="#CC5520"/>
<path d="M336 69.7085C339.354 62.3548 344.837 52.4496 353.685 42.4372C364.249 30.4831 375.339 23.2083 383.026 18.9989C386.284 26.0073 389.955 35.8755 391.804 48.1165C394.357 65.0223 392.329 79.1204 390.317 87.9989C389.111 76.0058 381.498 65.6881 370.637 61.3774C358.722 56.6493 344.905 59.945 336 69.7085Z" fill="#CC5520"/>
<path d="M184.227 79C183.029 71.3636 182.215 60.5055 184.203 47.7551C186.613 32.2898 192.148 20.4293 196.374 13C203.032 17.162 211.551 23.4567 219.825 32.6315C230.718 44.7094 236.708 56.8094 240 65.1113C231.719 54.3844 217.471 49.9914 204.938 54.12C193.911 57.752 185.87 67.4327 184.227 79H184.227Z" fill="#CC5520"/>
<path d="M264.451 384.435C244.1 409.017 235.089 433.687 231 448.001C241.858 428.452 272.543 379.241 319.779 374.932C323.058 374.633 326.466 374.545 330 374.715C327.686 368.127 325.469 360.975 323.483 353.283C322.303 348.712 321.291 344.278 320.419 340C307.221 346.566 284.808 359.844 264.451 384.434V384.435Z" fill="#CC5520"/>
<path d="M223.044 337.002C217.866 361.46 214.348 391.679 216.796 425.915C217.424 434.702 218.396 443.073 219.613 451.001C221.546 443.662 223.747 436.04 226.254 428.177C229.676 417.452 233.306 407.427 237 398.124C232.348 377.749 227.696 357.375 223.044 337.001V337.002Z" fill="#CC5520"/>
<path d="M241.116 271.256C226.744 245.17 212.372 219.084 198 192.997C205.323 206.416 213.836 213.857 219.888 218.056C257.469 244.13 313.454 223.809 342.504 213.231C357.152 207.897 368.454 202.295 375 198.844C358.965 223.951 342.929 249.058 326.894 274.166C317.241 277.143 302.384 280.506 284.098 279.933C265.47 279.349 250.624 274.912 241.116 271.256H241.116Z" fill="#EA9127"/>
<path d="M262.049 70.0001C263.632 75.2991 265.605 84.4723 264.111 95.6584C263.615 99.378 262.673 107.904 257.274 116.492C253.045 123.22 249.777 125.384 242.077 133.306C237.63 137.88 231.555 144.643 225 153.789C232.395 156.793 241.053 159.514 250.866 161.207C284.105 166.942 311.817 157.655 326.847 151.062C328.898 148.231 330.948 145.399 333 142.567C318.835 134.316 299.97 120.899 282.37 99.7016C273.759 89.3314 267.135 79.1278 262.049 69.9996L262.049 70.0001Z" fill="#EA9127"/>
<path d="M263.589 333.231C246.308 344.105 225.566 336.29 222.1 334.924C221.956 342.674 221.964 350.631 222.147 358.786C222.669 382.076 224.555 403.878 227.276 424.003C234.555 402.97 244.788 379.263 259.381 354.592C264.836 345.37 270.423 336.822 276 328.927C274.912 327.619 273.825 326.311 272.738 325.003C270.433 327.886 267.445 330.804 263.589 333.231Z" fill="#EA9127"/>
<path d="M231 447.999C235.663 433.018 245.507 408.087 266.575 383.329C286.274 360.181 307.493 346.929 321 339.867C319.286 331.156 317.889 321.426 317.167 310.803C316.792 305.287 316.632 300.01 316.634 294.999C303.294 308.962 288.592 326.649 274.666 348.459C250.857 385.747 238.114 421.307 231 447.998V447.999Z" fill="#EA9127"/>
<path d="M198.238 13C195.969 17.0996 193.628 22.0021 191.574 27.6914C188.241 36.9217 186.708 45.3317 186 52C186.341 50.0264 188.219 40.252 196.267 35.2376C205.444 29.5201 219.019 32.2509 228 43.0038C223.623 36.6103 217.654 29.2043 209.665 22.0216C205.727 18.4801 201.863 15.5016 198.237 13L198.238 13Z" fill="#903518"/>
<path d="M383.29 18.9989C385.378 23.0533 387.512 27.9715 389.25 33.7084C392.108 43.1485 392.914 51.583 393 57.9989C392.858 56.3306 391.818 45.9988 383.45 40.3256C374.449 34.2225 360.57 35.9502 351 45.6345C355.537 40.0739 361.777 33.551 370.095 27.3725C374.718 23.9388 379.196 21.1946 383.291 18.9989H383.29Z" fill="#903518"/>
<path d="M326.567 274.137C338.712 255.093 350.856 236.048 363 217.003C352.245 228.782 330.249 249.579 295.852 261.773C273.545 269.68 253.674 271.257 240 271.196C250.201 275.099 266.379 279.862 286.646 280C303.329 280.114 317.065 277.054 326.567 274.137Z" fill="#CC5520"/>
</svg>
