<svg width="113" height="99" viewBox="0 0 113 99" fill="none" xmlns="http://www.w3.org/2000/svg">
<path d="M102.406 49.5H84.75V35.375C84.75 27.5842 91.0842 21.25 98.875 21.25H100.641C103.576 21.25 105.938 18.8885 105.938 15.9531V5.35938C105.938 2.42402 103.576 0.0625 100.641 0.0625H98.875C79.3648 0.0625 63.5625 15.8648 63.5625 35.375V88.3438C63.5625 94.1924 68.3076 98.9375 74.1562 98.9375H102.406C108.255 98.9375 113 94.1924 113 88.3438V60.0938C113 54.2451 108.255 49.5 102.406 49.5ZM38.8438 49.5H21.1875V35.375C21.1875 27.5842 27.5217 21.25 35.3125 21.25H37.0781C40.0135 21.25 42.375 18.8885 42.375 15.9531V5.35938C42.375 2.42402 40.0135 0.0625 37.0781 0.0625H35.3125C15.8023 0.0625 0 15.8648 0 35.375V88.3438C0 94.1924 4.74512 98.9375 10.5938 98.9375H38.8438C44.6924 98.9375 49.4375 94.1924 49.4375 88.3438V60.0938C49.4375 54.2451 44.6924 49.5 38.8438 49.5Z" fill="#878787"/>
</svg>
